<svg xmlns="http://www.w3.org/2000/svg" width="22" height="19" viewBox="0 0 22 19">
  <g fill="none" fill-rule="evenodd">
    <path fill="#FF7DED" d="M8.38801459,18 C4.43288328,18 1.08986523,15.3848458 3.90798505e-14,11.7927288 C0.658179324,11.7662838 1.34051768,11.753249 2.02333409,11.7532131 C3.3751914,14.16357 5.95493095,15.7924528 8.91509713,15.7924528 C9.7892574,15.7924528 10.6302416,15.6504034 11.4162255,15.3881277 C9.54502995,15.1598188 7.7334738,14.3273031 6.29719624,12.8905805 C3.50606634,10.0986345 2.99617328,5.88902597 4.76706723,2.57884857 C7.56946249,5.1650613 10.6263314,8.64412327 10.7340019,9.6975843 C10.7340019,9.6975843 13.7770629,4.46303623 17.5066739,0.907778198 C17.7727594,0.654173265 18.0357156,0.408254177 18.2950675,0.169811321 C18.4208948,0.281996707 18.5443052,0.398276553 18.6649915,0.519000215 C22.0802229,3.93533311 22.0802229,9.47424622 18.6649915,12.8905805 C17.5769628,13.978929 16.2735901,14.72056 14.8920803,15.1154734 C13.2884437,16.8868622 10.9684792,18 8.38801459,18 Z"/>
    <path fill="#FC0316" d="M15.3079576,3.26042637 C12.6515808,6.39904412 10.7340019,9.6975843 10.7340019,9.6975843 C10.6263314,8.64412327 7.56946249,5.1650613 4.76706723,2.57884857 C2.99617328,5.88902597 3.50606634,10.0986345 6.29719624,12.8905805 C7.7334738,14.3273031 9.54502995,15.1598188 11.4162255,15.3881277 C10.6302416,15.6504034 9.7892574,15.7924528 8.91509713,15.7924528 C4.55415414,15.7924528 1.01886792,12.2572162 1.01886792,7.89622293 C1.01886792,5.01907161 2.55790022,2.50168818 4.85734226,1.12141709 C6.61819356,2.46442012 7.82034444,3.61038502 7.82034444,3.61038502 C7.82034444,3.61038502 7.46818478,2.37777746 7.01892726,0.229717412 C7.62639839,0.0799756917 8.26134077,0 8.91509713,0 C11.5439342,0 13.8727374,1.2846492 15.3079576,3.26042709 L15.3079576,3.26042637 Z"/>
  </g>
</svg>
